<svg width="1080" height="1080" viewBox="0 0 1080 1080" fill="none" xmlns="http://www.w3.org/2000/svg">
<mask id="mask0_24_159" style="mask-type:alpha" maskUnits="userSpaceOnUse" x="0" y="0" width="1080" height="1080">
<path d="M0 195C0 87.3045 87.3045 0 195 0H885C992.696 0 1080 87.3045 1080 195V885C1080 992.696 992.696 1080 885 1080H195C87.3045 1080 0 992.696 0 885V195Z" fill="#593E67"/>
</mask>
<g mask="url(#mask0_24_159)">
<mask id="mask1_24_159" style="mask-type:alpha" maskUnits="userSpaceOnUse" x="540" y="-86" width="763" height="626">
<path fill-rule="evenodd" clip-rule="evenodd" d="M556.917 398.864C580.595 316.236 628.099 234.178 696.718 158.209C785.824 59.5578 907.052 -24.9704 1046.96 -86L1058.17 -68.6316C923.301 -9.79891 806.437 71.6866 720.539 166.786C670.863 221.783 632.666 280.09 607.056 339.454C682.244 255.995 768.858 183.308 861.739 126.118C983.679 51.0349 1111.92 5.43413 1232.99 -5.89422L1162.41 252.865C1085.28 260.081 1003.59 289.131 925.908 336.961C892.593 357.474 860.544 381.117 830.347 407.353C872.637 389.365 918.612 374.982 967.61 364.491C1068.25 342.944 1179.37 338.299 1293.71 350.861L1302.99 432.784C1204.95 422.013 1109.67 425.996 1023.38 444.471C937.09 462.946 861.733 495.499 802.234 540L741.846 498.172C734.684 506.856 727.714 515.698 720.95 524.686L575.777 441.344C574.022 450.947 572.607 460.545 571.537 470.128L542.152 472.878C543.876 457.439 546.463 441.963 549.896 426.485L540 420.804C545.552 413.427 551.192 406.113 556.917 398.864Z" fill="#472A56"/>
</mask>
<g mask="url(#mask1_24_159)">
<rect x="556.387" y="-13.9434" width="759.928" height="709.557" fill="url(#paint0_radial_24_159)"/>
</g>
<path fill-rule="evenodd" clip-rule="evenodd" d="M604.771 513.291L745.081 325.215L563.877 467.778C549.83 462.031 534.425 461.505 520.123 466.213L356.511 326.151L478.659 504.057C469.999 522.408 468.54 543.848 474.306 563.246L334.984 751.015L513.394 609.857C530.576 617.74 550.064 617.62 567.186 609.474L737.295 755.901L605.542 562.938C610.266 546.809 610.014 529.279 604.771 513.291Z" fill="#D9D9D9"/>
<path fill-rule="evenodd" clip-rule="evenodd" d="M617.065 620.362L539.674 941.738L463.496 618.08L152.667 528.486L463.172 458.319L539.673 137L616.774 460.834L927.081 551.205L617.065 620.362ZM596.856 527.777L595.817 562.704C590.836 578.273 579.986 591.058 565.992 598.231L513.746 598.086C498.353 590.09 486.81 575.284 482.775 557.47L483.629 526.047C490.837 500.785 513.351 482.356 540.009 482.356C567.272 482.356 590.201 501.631 596.856 527.777Z" fill="#D9D9D9"/>
</g>
<defs>
<radialGradient id="paint0_radial_24_159" cx="0" cy="0" r="1" gradientUnits="userSpaceOnUse" gradientTransform="translate(575 523.5) rotate(-40.8328) scale(724.933 422.624)">
<stop offset="0.206524" stop-color="#D9D9D9" stop-opacity="0.56"/>
<stop offset="0.842062" stop-color="#D9D9D9" stop-opacity="0"/>
</radialGradient>
</defs>
</svg>
